# xmcd CD database file
#
# Track frame offsets:
#	150
#	17400
#	37255
#
# Disc length: 837 seconds
#
# Revision: 3
# Processed by: cddbd v1.4PL0 Copyright (c) Steve Scherf et al.
# Submitted via: CDex 1.50Beta7
#
DISCID=1c034303
DTITLE=US3 - Come On Everybody (Get Down)
DYEAR=1997
DGENRE=Rhythmic Soul
TTITLE0=Radio Edit
TTITLE1=Rickidy Raw Urban Remix
TTITLE2=Recognize and Realize (LP Version)
EXTD=YEAR: 1997
EXTT0=
EXTT1=
EXTT2=
PLAYORDER=
